<svg width="17" height="17" viewBox="0 0 17 17" fill="none" xmlns="http://www.w3.org/2000/svg">
<path fill-rule="evenodd" clip-rule="evenodd" d="M3.27375 3.78918H15.75C15.8355 3.78707 15.9204 3.80451 15.9982 3.84017C16.076 3.87582 16.1446 3.92875 16.1989 3.99492C16.2531 4.0611 16.2915 4.13877 16.3112 4.22204C16.3309 4.3053 16.3314 4.39197 16.3125 4.47543L15.1875 9.53793C15.1589 9.66482 15.0873 9.77788 14.9847 9.85788C14.8821 9.93787 14.755 9.97986 14.625 9.97668H4.5L4.96125 12.2267H14.625V13.3517H4.5C4.36841 13.3543 4.24005 13.3108 4.13727 13.2285C4.03449 13.1463 3.9638 13.0306 3.9375 12.9017L1.78875 2.10168H0V0.976677H2.25C2.38159 0.974023 2.50995 1.0176 2.61273 1.09982C2.71551 1.18205 2.7862 1.29771 2.8125 1.42668L3.27375 3.78918ZM4.28625 8.85168H14.175L15.0469 4.91418H3.49875L4.28625 8.85168ZM5.625 16.7267C6.24632 16.7267 6.75 16.223 6.75 15.6017C6.75 14.9804 6.24632 14.4767 5.625 14.4767C5.00368 14.4767 4.5 14.9804 4.5 15.6017C4.5 16.223 5.00368 16.7267 5.625 16.7267ZM13.5 16.7267C14.1213 16.7267 14.625 16.223 14.625 15.6017C14.625 14.9804 14.1213 14.4767 13.5 14.4767C12.8787 14.4767 12.375 14.9804 12.375 15.6017C12.375 16.223 12.8787 16.7267 13.5 16.7267Z" fill="#254916"/>
</svg>
